<?xml version="1.0" encoding="UTF-8"?>
<svg xmlns="http://www.w3.org/2000/svg" xmlns:xlink="http://www.w3.org/1999/xlink" width="150px" height="212px" viewBox="0 0 150 212" version="1.1">
<g id="surface1">
<path style=" stroke:none;fill-rule:nonzero;fill:rgb(7.843138%,15.294118%,20%);fill-opacity:1;" d="M 134.566406 95.695312 C 134.566406 63.347656 108.335938 37.125 75.972656 37.125 C 43.613281 37.125 17.378906 63.347656 17.378906 95.695312 C 17.378906 128.039062 43.613281 154.261719 75.972656 154.261719 C 108.335938 154.261719 134.566406 128.039062 134.566406 95.695312 Z M 134.566406 95.695312 "/>
<path style=" stroke:none;fill-rule:nonzero;fill:rgb(0%,45.490196%,90.980393%);fill-opacity:1;" d="M 36.347656 66.640625 C 52.402344 44.765625 83.15625 40.039062 105.042969 56.085938 C 126.925781 72.132812 131.652344 102.875 115.597656 124.75 C 99.542969 146.621094 68.789062 151.347656 46.90625 135.300781 C 25.023438 119.253906 20.296875 88.511719 36.347656 66.640625 Z M 36.347656 66.640625 "/>
<path style=" stroke:none;fill-rule:nonzero;fill:rgb(95.686275%,98.039216%,100%);fill-opacity:1;" d="M 37.773438 62.566406 C 37.496094 62.898438 37.125 63.148438 36.65625 63.320312 L 36.519531 63.960938 L 36.421875 64.078125 L 34.953125 62.984375 L 35.050781 62.863281 L 36.5 63.195312 C 36.96875 63.066406 37.367188 62.8125 37.683594 62.429688 C 37.945312 62.113281 38.074219 61.789062 38.066406 61.453125 C 38.058594 61.113281 37.894531 60.824219 37.574219 60.582031 C 37.34375 60.410156 37.105469 60.339844 36.859375 60.371094 C 36.613281 60.402344 36.328125 60.535156 36 60.773438 L 35.011719 61.480469 C 34.667969 61.726562 34.324219 61.851562 33.980469 61.851562 C 33.636719 61.847656 33.320312 61.738281 33.03125 61.523438 C 32.765625 61.328125 32.574219 61.105469 32.453125 60.859375 C 32.328125 60.605469 32.289062 60.339844 32.339844 60.070312 C 32.382812 59.792969 32.511719 59.527344 32.726562 59.265625 C 33 58.9375 33.300781 58.691406 33.632812 58.523438 L 33.78125 57.996094 L 33.878906 57.878906 L 35.046875 58.75 L 34.949219 58.867188 L 33.792969 58.632812 C 33.429688 58.796875 33.121094 59.039062 32.859375 59.351562 C 32.601562 59.664062 32.480469 59.972656 32.503906 60.28125 C 32.523438 60.585938 32.671875 60.839844 32.953125 61.046875 C 33.15625 61.203125 33.371094 61.261719 33.59375 61.222656 C 33.820312 61.183594 34.070312 61.066406 34.34375 60.867188 L 35.410156 60.109375 C 35.753906 59.859375 36.089844 59.738281 36.421875 59.742188 C 36.75 59.738281 37.125 59.890625 37.539062 60.199219 C 37.964844 60.515625 38.195312 60.886719 38.230469 61.3125 C 38.269531 61.738281 38.117188 62.152344 37.773438 62.566406 Z M 37.773438 62.566406 "/>
<path style=" stroke:none;fill-rule:nonzero;fill:rgb(95.686275%,98.039216%,100%);fill-opacity:1;" d="M 40.050781 59.816406 L 39.941406 59.714844 L 40.324219 59.191406 L 36.445312 55.65625 L 35.617188 56.464844 L 36.277344 57.789062 L 36.132812 57.929688 L 34.960938 56.863281 L 38.222656 53.664062 L 39.394531 54.730469 L 39.246094 54.878906 L 37.828125 54.300781 L 36.996094 55.117188 L 40.875 58.652344 L 41.414062 58.273438 L 41.527344 58.371094 Z M 40.050781 59.816406 "/>
<path style=" stroke:none;fill-rule:nonzero;fill:rgb(95.686275%,98.039216%,100%);fill-opacity:1;" d="M 45.023438 55.589844 C 44.617188 55.902344 44.175781 56.089844 43.691406 56.152344 C 43.207031 56.210938 42.726562 56.140625 42.253906 55.941406 C 41.78125 55.742188 41.351562 55.421875 40.972656 54.984375 C 40.59375 54.546875 40.347656 54.09375 40.230469 53.617188 C 40.113281 53.136719 40.132812 52.679688 40.289062 52.246094 C 40.445312 51.808594 40.726562 51.433594 41.132812 51.117188 C 41.539062 50.804688 41.984375 50.617188 42.46875 50.558594 C 42.953125 50.496094 43.433594 50.570312 43.90625 50.769531 C 44.378906 50.96875 44.804688 51.289062 45.183594 51.722656 C 45.566406 52.160156 45.8125 52.617188 45.933594 53.097656 C 46.046875 53.574219 46.027344 54.027344 45.867188 54.464844 C 45.710938 54.898438 45.429688 55.273438 45.023438 55.589844 Z M 44.917969 55.46875 C 45.1875 55.257812 45.367188 55.007812 45.464844 54.707031 C 45.5625 54.40625 45.5625 54.078125 45.460938 53.726562 C 45.359375 53.375 45.15625 53.019531 44.847656 52.667969 L 44.136719 51.851562 C 43.828125 51.5 43.503906 51.242188 43.160156 51.082031 C 42.8125 50.917969 42.46875 50.851562 42.136719 50.886719 C 41.808594 50.914062 41.507812 51.035156 41.238281 51.242188 C 40.96875 51.453125 40.785156 51.707031 40.691406 52.003906 C 40.59375 52.304688 40.597656 52.632812 40.699219 52.984375 C 40.800781 53.335938 41.003906 53.6875 41.308594 54.039062 L 42.023438 54.859375 C 42.328125 55.210938 42.65625 55.46875 43.003906 55.628906 C 43.347656 55.792969 43.6875 55.855469 44.015625 55.828125 C 44.347656 55.796875 44.648438 55.675781 44.917969 55.46875 Z M 44.917969 55.46875 "/>
<path style=" stroke:none;fill-rule:nonzero;fill:rgb(95.686275%,98.039216%,100%);fill-opacity:1;" d="M 51.1875 51.417969 C 50.960938 51.554688 50.753906 51.605469 50.570312 51.570312 C 50.382812 51.535156 50.1875 51.402344 49.972656 51.175781 L 49.332031 50.46875 C 49.109375 50.230469 48.875 50.082031 48.625 50.027344 C 48.378906 49.964844 48.097656 50.027344 47.785156 50.214844 L 47.308594 50.5 L 48.695312 52.542969 L 49.316406 52.292969 L 49.398438 52.414062 L 47.605469 53.492188 L 47.523438 53.371094 L 48.027344 52.945312 L 45.15625 48.726562 L 44.539062 48.980469 L 44.453125 48.855469 L 46.160156 47.828125 C 46.824219 47.429688 47.371094 47.238281 47.800781 47.257812 C 48.230469 47.277344 48.582031 47.488281 48.855469 47.890625 C 49.308594 48.554688 49.144531 49.191406 48.371094 49.804688 L 48.394531 49.839844 C 48.738281 49.695312 49.058594 49.648438 49.363281 49.707031 C 49.667969 49.761719 49.941406 49.917969 50.183594 50.167969 L 50.601562 50.621094 C 50.78125 50.816406 50.917969 50.941406 51.011719 50.996094 C 51.105469 51.042969 51.199219 51.042969 51.289062 50.988281 C 51.351562 50.953125 51.402344 50.894531 51.449219 50.820312 C 51.492188 50.738281 51.523438 50.652344 51.546875 50.558594 L 51.71875 50.601562 C 51.6875 50.796875 51.628906 50.960938 51.539062 51.09375 C 51.449219 51.222656 51.332031 51.332031 51.1875 51.417969 Z M 47.898438 49.953125 C 48.191406 49.773438 48.363281 49.550781 48.410156 49.28125 C 48.460938 49.007812 48.371094 48.703125 48.140625 48.367188 L 48.058594 48.246094 C 47.621094 47.605469 47.023438 47.511719 46.257812 47.972656 L 45.785156 48.257812 L 47.214844 50.363281 Z M 47.898438 49.953125 "/>
<path style=" stroke:none;fill-rule:nonzero;fill:rgb(95.686275%,98.039216%,100%);fill-opacity:1;" d="M 51.617188 51.054688 L 51.546875 50.925781 L 52.054688 50.382812 L 51.449219 44.839844 L 51.554688 44.789062 L 55.882812 48.789062 L 56.527344 48.605469 L 56.59375 48.734375 L 54.691406 49.625 L 54.621094 49.492188 L 55.109375 49.164062 L 53.785156 47.964844 L 52.0625 48.769531 L 52.222656 50.304688 L 52.9375 50.28125 L 53.003906 50.410156 Z M 52.042969 48.613281 L 53.671875 47.855469 L 51.746094 46.050781 Z M 52.042969 48.613281 "/>
<path style=" stroke:none;fill-rule:nonzero;fill:rgb(95.686275%,98.039216%,100%);fill-opacity:1;" d="M 58.332031 48.070312 L 58.285156 47.929688 L 58.886719 47.644531 L 57.253906 42.882812 L 56.589844 42.976562 L 56.539062 42.835938 L 58.570312 42.230469 L 58.617188 42.375 L 58.015625 42.65625 L 58.75 44.800781 L 61.371094 44.019531 L 60.636719 41.875 L 59.964844 41.972656 L 59.914062 41.828125 L 61.957031 41.222656 L 62.007812 41.367188 L 61.394531 41.648438 L 63.027344 46.410156 L 63.703125 46.320312 L 63.75 46.457031 L 61.707031 47.066406 L 61.660156 46.925781 L 62.269531 46.636719 L 61.429688 44.183594 L 58.804688 44.964844 L 59.648438 47.417969 L 60.316406 47.328125 L 60.363281 47.464844 Z M 58.332031 48.070312 "/>
<path style=" stroke:none;fill-rule:nonzero;fill:rgb(95.686275%,98.039216%,100%);fill-opacity:1;" d="M 67.136719 45.988281 C 66.617188 46.074219 66.132812 46.035156 65.675781 45.867188 C 65.21875 45.695312 64.832031 45.417969 64.519531 45.027344 C 64.203125 44.636719 63.992188 44.160156 63.882812 43.609375 C 63.769531 43.054688 63.785156 42.542969 63.929688 42.078125 C 64.070312 41.605469 64.324219 41.21875 64.683594 40.910156 C 65.042969 40.601562 65.484375 40.40625 66.003906 40.316406 C 66.519531 40.230469 67.007812 40.269531 67.464844 40.4375 C 67.921875 40.609375 68.308594 40.890625 68.621094 41.28125 C 68.933594 41.671875 69.148438 42.144531 69.257812 42.695312 C 69.367188 43.25 69.351562 43.761719 69.210938 44.234375 C 69.070312 44.699219 68.816406 45.085938 68.457031 45.394531 C 68.09375 45.703125 67.65625 45.898438 67.136719 45.988281 Z M 67.105469 45.832031 C 67.449219 45.773438 67.738281 45.636719 67.972656 45.417969 C 68.214844 45.203125 68.382812 44.917969 68.476562 44.566406 C 68.566406 44.210938 68.566406 43.8125 68.476562 43.367188 L 68.269531 42.328125 C 68.179688 41.882812 68.023438 41.507812 67.804688 41.210938 C 67.582031 40.910156 67.316406 40.695312 67.003906 40.574219 C 66.699219 40.449219 66.375 40.414062 66.035156 40.472656 C 65.6875 40.53125 65.394531 40.667969 65.15625 40.886719 C 64.921875 41.101562 64.757812 41.390625 64.667969 41.742188 C 64.574219 42.09375 64.574219 42.492188 64.660156 42.9375 L 64.871094 43.976562 C 64.957031 44.421875 65.113281 44.796875 65.335938 45.097656 C 65.558594 45.394531 65.820312 45.609375 66.128906 45.734375 C 66.433594 45.859375 66.757812 45.890625 67.105469 45.832031 Z M 65.308594 40.167969 C 65.191406 40.1875 65.082031 40.167969 64.980469 40.105469 C 64.882812 40.042969 64.824219 39.957031 64.800781 39.84375 C 64.78125 39.730469 64.800781 39.628906 64.867188 39.539062 C 64.9375 39.449219 65.03125 39.394531 65.148438 39.371094 C 65.269531 39.351562 65.375 39.375 65.472656 39.4375 C 65.570312 39.5 65.628906 39.585938 65.652344 39.699219 C 65.671875 39.8125 65.652344 39.914062 65.585938 40.003906 C 65.519531 40.09375 65.429688 40.148438 65.308594 40.167969 Z M 66.636719 39.945312 C 66.515625 39.964844 66.40625 39.945312 66.304688 39.882812 C 66.210938 39.820312 66.152344 39.730469 66.128906 39.617188 C 66.105469 39.507812 66.128906 39.40625 66.191406 39.316406 C 66.261719 39.222656 66.359375 39.167969 66.476562 39.148438 C 66.59375 39.128906 66.699219 39.148438 66.792969 39.214844 C 66.886719 39.277344 66.949219 39.363281 66.96875 39.476562 C 66.992188 39.589844 66.972656 39.691406 66.90625 39.78125 C 66.84375 39.871094 66.753906 39.925781 66.636719 39.945312 Z M 66.636719 39.945312 "/>
<path style=" stroke:none;fill-rule:nonzero;fill:rgb(95.686275%,98.039216%,100%);fill-opacity:1;" d="M 73.214844 45.324219 C 72.6875 45.351562 72.21875 45.253906 71.804688 45.03125 C 71.394531 44.808594 71.066406 44.488281 70.816406 44.066406 C 70.578125 43.640625 70.4375 43.148438 70.398438 42.582031 C 70.359375 42.015625 70.4375 41.511719 70.636719 41.066406 C 70.835938 40.621094 71.128906 40.265625 71.515625 40.003906 C 71.910156 39.738281 72.371094 39.59375 72.898438 39.566406 C 73.394531 39.542969 73.824219 39.640625 74.183594 39.859375 L 74.597656 39.480469 L 74.75 39.472656 L 74.867188 41.171875 L 74.714844 41.179688 L 74.160156 40.074219 C 73.792969 39.816406 73.375 39.703125 72.90625 39.726562 C 72.570312 39.742188 72.269531 39.839844 72.011719 40.019531 C 71.757812 40.195312 71.5625 40.445312 71.429688 40.769531 C 71.300781 41.09375 71.253906 41.472656 71.28125 41.90625 L 71.367188 43.15625 C 71.394531 43.589844 71.492188 43.960938 71.652344 44.269531 C 71.820312 44.578125 72.035156 44.808594 72.296875 44.964844 C 72.5625 45.117188 72.867188 45.183594 73.203125 45.167969 C 73.617188 45.144531 73.933594 45.007812 74.140625 44.753906 C 74.359375 44.5 74.453125 44.171875 74.425781 43.765625 L 74.382812 43.128906 L 73.699219 43.066406 L 73.691406 42.914062 L 75.855469 42.804688 L 75.867188 42.957031 L 75.199219 43.085938 L 75.242188 43.722656 C 75.261719 43.984375 75.203125 44.230469 75.066406 44.464844 C 74.933594 44.699219 74.710938 44.894531 74.402344 45.050781 C 74.09375 45.207031 73.699219 45.300781 73.214844 45.324219 Z M 73.214844 45.324219 "/>
<path style=" stroke:none;fill-rule:nonzero;fill:rgb(95.686275%,98.039216%,100%);fill-opacity:1;" d="M 75.882812 45.046875 L 75.890625 44.902344 L 76.617188 44.667969 L 78.980469 39.589844 L 79.097656 39.597656 L 80.796875 45.074219 L 81.457031 45.214844 L 81.449219 45.359375 L 79.320312 45.238281 L 79.328125 45.09375 L 79.925781 45.039062 L 79.394531 43.382812 L 77.464844 43.273438 L 76.804688 44.679688 L 77.441406 44.988281 L 77.433594 45.132812 Z M 77.53125 43.132812 L 79.351562 43.234375 L 78.605469 40.777344 Z M 77.53125 43.132812 "/>
<path style=" stroke:none;fill-rule:nonzero;fill:rgb(95.686275%,98.039216%,100%);fill-opacity:1;" d="M 87.4375 46.480469 C 87.171875 46.429688 86.984375 46.332031 86.878906 46.183594 C 86.769531 46.039062 86.722656 45.8125 86.734375 45.511719 L 86.785156 44.585938 C 86.800781 44.273438 86.738281 44.015625 86.597656 43.808594 C 86.460938 43.601562 86.210938 43.464844 85.84375 43.394531 L 85.289062 43.285156 L 84.800781 45.652344 L 85.4375 45.878906 L 85.40625 46.019531 L 83.3125 45.617188 L 83.34375 45.472656 L 84.019531 45.5 L 85.023438 40.609375 L 84.390625 40.386719 L 84.417969 40.238281 L 86.414062 40.625 C 87.1875 40.773438 87.726562 40.996094 88.023438 41.292969 C 88.324219 41.585938 88.425781 41.96875 88.332031 42.433594 C 88.171875 43.203125 87.585938 43.554688 86.574219 43.484375 L 86.566406 43.523438 C 86.921875 43.644531 87.1875 43.824219 87.367188 44.0625 C 87.546875 44.304688 87.636719 44.59375 87.625 44.929688 L 87.597656 45.527344 C 87.585938 45.785156 87.59375 45.964844 87.621094 46.0625 C 87.65625 46.160156 87.722656 46.222656 87.828125 46.242188 C 87.898438 46.253906 87.980469 46.25 88.070312 46.226562 C 88.160156 46.195312 88.246094 46.15625 88.332031 46.101562 L 88.429688 46.246094 C 88.261719 46.367188 88.097656 46.445312 87.9375 46.480469 C 87.777344 46.511719 87.609375 46.511719 87.4375 46.480469 Z M 86.121094 43.277344 C 86.46875 43.34375 86.753906 43.296875 86.984375 43.136719 C 87.222656 42.972656 87.378906 42.695312 87.460938 42.308594 L 87.488281 42.167969 C 87.644531 41.421875 87.273438 40.964844 86.378906 40.792969 L 85.824219 40.6875 L 85.320312 43.125 Z M 86.121094 43.277344 "/>
<path style=" stroke:none;fill-rule:nonzero;fill:rgb(95.686275%,98.039216%,100%);fill-opacity:1;" d="M 88.476562 46.683594 L 88.519531 46.546875 L 89.191406 46.625 L 90.617188 41.832031 L 90.003906 41.5625 L 90.046875 41.417969 L 92.101562 41.980469 L 92.058594 42.125 L 91.386719 42.042969 L 89.960938 46.835938 L 90.574219 47.109375 L 90.53125 47.25 Z M 88.476562 46.683594 "/>
<path style=" stroke:none;fill-rule:nonzero;fill:rgb(95.686275%,98.039216%,100%);fill-opacity:1;" d="M 91.164062 47.222656 L 91.828125 47.355469 L 93.714844 42.710938 L 93.125 42.390625 L 93.183594 42.25 L 95.78125 43.214844 C 96.277344 43.398438 96.675781 43.667969 96.972656 44.023438 C 97.277344 44.375 97.457031 44.785156 97.519531 45.25 C 97.578125 45.714844 97.507812 46.203125 97.300781 46.710938 C 97.09375 47.222656 96.800781 47.632812 96.425781 47.9375 C 96.054688 48.242188 95.632812 48.425781 95.15625 48.496094 C 94.683594 48.558594 94.199219 48.5 93.707031 48.316406 L 91.109375 47.355469 Z M 93.769531 48.164062 C 94.097656 48.285156 94.421875 48.324219 94.730469 48.273438 C 95.046875 48.222656 95.335938 48.082031 95.597656 47.851562 C 95.859375 47.617188 96.074219 47.292969 96.238281 46.886719 L 96.636719 45.902344 C 96.804688 45.492188 96.871094 45.121094 96.84375 44.78125 C 96.816406 44.441406 96.699219 44.152344 96.503906 43.914062 C 96.308594 43.675781 96.046875 43.496094 95.714844 43.371094 L 94.488281 42.917969 L 92.542969 47.710938 Z M 93.769531 48.164062 "/>
<path style=" stroke:none;fill-rule:nonzero;fill:rgb(95.686275%,98.039216%,100%);fill-opacity:1;" d="M 96.882812 49.554688 L 96.953125 49.429688 L 97.59375 49.636719 L 100.050781 45.238281 L 99.503906 44.855469 L 99.578125 44.722656 L 101.46875 45.675781 L 101.394531 45.8125 L 100.757812 45.597656 L 99.542969 47.769531 L 102.75 46.820312 L 102.191406 46.214844 L 102.265625 46.082031 L 103.75 46.832031 L 103.675781 46.964844 L 103.007812 46.949219 L 100.78125 47.589844 L 101.246094 51.480469 L 101.632812 51.792969 L 101.558594 51.917969 L 99.664062 50.960938 L 99.734375 50.835938 L 100.367188 51.046875 L 100.015625 47.808594 L 99.425781 47.980469 L 98.300781 49.992188 L 98.84375 50.382812 L 98.769531 50.511719 Z M 96.882812 49.554688 "/>
<path style=" stroke:none;fill-rule:nonzero;fill:rgb(95.686275%,98.039216%,100%);fill-opacity:1;" d="M 101.605469 51.988281 L 101.691406 51.871094 L 102.308594 52.140625 L 105.234375 48.011719 L 104.734375 47.578125 L 104.824219 47.453125 L 106.597656 48.585938 L 106.511719 48.710938 L 105.898438 48.433594 L 102.921875 52.632812 L 104.730469 53.785156 L 106.109375 52.851562 L 106.273438 52.957031 L 105.292969 54.339844 Z M 101.605469 51.988281 "/>
<path style=" stroke:none;fill-rule:nonzero;fill:rgb(95.686275%,98.039216%,100%);fill-opacity:1;" d="M 107.613281 56.3125 C 107.066406 55.875 106.765625 55.445312 106.714844 55.015625 C 106.667969 54.585938 106.8125 54.179688 107.144531 53.804688 L 109.679688 50.960938 L 109.230469 50.476562 L 109.335938 50.363281 L 110.972656 51.667969 L 110.871094 51.785156 L 110.292969 51.449219 L 107.757812 54.292969 C 107.453125 54.636719 107.324219 54.980469 107.363281 55.328125 C 107.40625 55.671875 107.636719 56.007812 108.050781 56.339844 C 108.839844 56.96875 109.546875 56.929688 110.175781 56.222656 L 112.59375 53.507812 L 112.257812 52.890625 L 112.359375 52.777344 L 113.546875 53.722656 L 113.445312 53.839844 L 112.730469 53.617188 L 110.3125 56.332031 C 109.9375 56.75 109.535156 56.960938 109.101562 56.972656 C 108.667969 56.980469 108.171875 56.757812 107.613281 56.3125 Z M 107.613281 56.3125 "/>
<path style=" stroke:none;fill-rule:nonzero;fill:rgb(95.686275%,98.039216%,100%);fill-opacity:1;" d="M 110.277344 58.132812 L 110.816406 58.523438 L 114.644531 55.117188 L 114.257812 54.589844 L 114.375 54.488281 L 115.902344 56.015625 C 116.261719 56.378906 116.511719 56.695312 116.65625 56.972656 C 116.800781 57.25 116.847656 57.5 116.800781 57.726562 C 116.757812 57.945312 116.621094 58.160156 116.386719 58.367188 C 115.882812 58.816406 115.257812 58.796875 114.511719 58.3125 L 114.484375 58.335938 C 114.800781 58.753906 114.972656 59.144531 114.996094 59.507812 C 115.027344 59.875 114.878906 60.199219 114.5625 60.484375 C 114.175781 60.828125 113.753906 60.945312 113.300781 60.839844 C 112.847656 60.738281 112.390625 60.457031 111.933594 60 L 110.167969 58.230469 Z M 114.007812 57.777344 C 114.273438 58.046875 114.558594 58.183594 114.859375 58.183594 C 115.160156 58.1875 115.457031 58.0625 115.746094 57.800781 L 115.777344 57.773438 C 116.351562 57.261719 116.351562 56.714844 115.769531 56.132812 L 115.253906 55.617188 L 113.449219 57.222656 Z M 112.0625 59.886719 C 112.34375 60.171875 112.652344 60.316406 112.980469 60.320312 C 113.3125 60.320312 113.636719 60.179688 113.960938 59.890625 L 114.019531 59.839844 C 114.335938 59.558594 114.496094 59.265625 114.5 58.96875 C 114.503906 58.675781 114.363281 58.382812 114.074219 58.097656 L 113.320312 57.339844 L 111.304688 59.128906 Z M 112.0625 59.886719 "/>
<path style=" stroke:none;fill-rule:nonzero;fill:rgb(95.686275%,98.039216%,100%);fill-opacity:1;" d="M 113.996094 61.902344 L 114.488281 62.347656 L 118.695312 59.367188 L 118.371094 58.804688 L 118.5 58.714844 L 119.835938 60.394531 C 120.152344 60.789062 120.367188 61.132812 120.476562 61.421875 C 120.585938 61.710938 120.605469 61.964844 120.53125 62.183594 C 120.464844 62.398438 120.300781 62.597656 120.046875 62.777344 C 119.492188 63.167969 118.871094 63.085938 118.183594 62.527344 L 118.15625 62.546875 C 118.421875 62.996094 118.546875 63.402344 118.53125 63.765625 C 118.515625 64.132812 118.332031 64.4375 117.980469 64.6875 C 117.558594 64.988281 117.125 65.0625 116.683594 64.910156 C 116.246094 64.761719 115.824219 64.433594 115.425781 63.933594 L 113.875 61.988281 Z M 117.746094 61.941406 C 117.980469 62.238281 118.246094 62.402344 118.546875 62.4375 C 118.84375 62.472656 119.15625 62.375 119.472656 62.148438 L 119.507812 62.125 C 120.140625 61.675781 120.203125 61.132812 119.691406 60.496094 L 119.242188 59.929688 L 117.257812 61.332031 Z M 115.5625 63.832031 C 115.8125 64.144531 116.101562 64.320312 116.425781 64.359375 C 116.757812 64.394531 117.097656 64.289062 117.453125 64.035156 L 117.515625 63.992188 C 117.867188 63.742188 118.0625 63.472656 118.097656 63.175781 C 118.136719 62.882812 118.027344 62.582031 117.777344 62.265625 L 117.113281 61.433594 L 114.902344 63.003906 Z M 115.5625 63.832031 "/>
<path style=" stroke:none;fill-rule:nonzero;fill:rgb(7.843138%,15.294118%,20%);fill-opacity:1;" d="M 80.960938 132.484375 C 80.851562 132.460938 80.320312 132.339844 79.789062 132.214844 C 79.253906 132.09375 78.425781 131.941406 77.949219 131.878906 C 77.472656 131.820312 76.960938 131.726562 76.816406 131.675781 C 76.277344 131.484375 75.910156 130.253906 76.261719 129.820312 C 76.535156 129.476562 76.453125 129.078125 76.035156 128.730469 C 75.824219 128.554688 75.535156 128.382812 75.394531 128.347656 C 74.726562 128.1875 74.355469 126.242188 74.847656 125.464844 C 75.097656 125.070312 75.757812 123.398438 75.859375 122.898438 C 75.898438 122.714844 76.035156 122.390625 76.164062 122.179688 C 76.292969 121.96875 76.542969 121.28125 76.722656 120.652344 C 77.03125 119.570312 77.046875 119.433594 77.003906 118.214844 C 76.960938 117.042969 76.984375 116.820312 77.246094 115.792969 C 77.570312 114.515625 77.867188 112.855469 78.105469 110.953125 C 78.195312 110.242188 78.359375 109.175781 78.46875 108.578125 C 78.574219 107.980469 78.664062 107.328125 78.664062 107.125 C 78.664062 106.71875 78.730469 106.757812 77.710938 106.554688 C 77.4375 106.5 77.039062 106.375 76.824219 106.269531 C 76.609375 106.167969 76.210938 106.039062 75.941406 105.988281 C 75.667969 105.933594 75.179688 105.820312 74.855469 105.730469 C 74.441406 105.617188 74.234375 105.601562 74.15625 105.671875 C 74.054688 105.765625 73.949219 106.253906 73.457031 108.851562 C 72.816406 112.226562 72.636719 113.3125 72.539062 114.394531 C 72.398438 115.886719 72.351562 116.113281 72.167969 116.113281 C 71.992188 116.113281 71.984375 115.773438 72.136719 114.34375 C 72.324219 112.574219 72.621094 110.765625 73.089844 108.542969 C 73.703125 105.621094 73.695312 105.707031 73.421875 105.609375 C 73.300781 105.570312 72.882812 105.503906 72.496094 105.46875 C 72.109375 105.433594 71.347656 105.324219 70.808594 105.226562 C 70.191406 105.117188 69.582031 105.070312 69.15625 105.097656 C 68.15625 105.167969 67.136719 104.992188 66.851562 104.707031 C 66.609375 104.464844 65.839844 104.273438 65.691406 104.421875 C 65.59375 104.519531 65.097656 106.699219 64.730469 108.660156 C 64.390625 110.476562 64.269531 110.800781 63.917969 110.839844 C 63.542969 110.882812 63.496094 110.691406 63.738281 110.117188 C 63.851562 109.851562 64.0625 109.148438 64.210938 108.550781 C 64.722656 106.464844 65.179688 104.433594 65.179688 104.246094 C 65.179688 104.117188 65.070312 104.019531 64.847656 103.949219 C 64.148438 103.71875 62.011719 102.648438 60.847656 101.945312 C 60.179688 101.539062 59.550781 101.207031 59.449219 101.207031 C 59.34375 101.207031 59.15625 101.339844 59.027344 101.503906 C 58.757812 101.847656 58.09375 102.195312 57.847656 102.121094 C 57.621094 102.054688 57.53125 102.125 57.179688 102.609375 C 57.019531 102.832031 56.546875 103.277344 56.132812 103.601562 C 55.519531 104.082031 55.355469 104.269531 55.265625 104.589844 C 55.207031 104.804688 55.097656 105.195312 55.023438 105.457031 C 54.949219 105.722656 54.855469 106.128906 54.820312 106.367188 C 54.78125 106.601562 54.664062 107.078125 54.554688 107.417969 C 54.050781 109.015625 53.734375 111.425781 53.933594 112.140625 C 53.996094 112.355469 54.09375 113.023438 54.152344 113.628906 C 54.410156 116.300781 54.40625 116.285156 54.734375 116.714844 C 55.015625 117.082031 55.535156 117.996094 56.480469 119.792969 C 56.671875 120.160156 57.121094 120.785156 57.476562 121.183594 C 58.082031 121.863281 58.136719 121.96875 58.386719 122.894531 C 58.535156 123.4375 58.722656 124.003906 58.800781 124.148438 C 58.882812 124.296875 58.949219 124.488281 58.949219 124.578125 C 58.949219 124.667969 59.152344 124.972656 59.402344 125.257812 C 59.753906 125.652344 59.871094 125.878906 59.917969 126.222656 C 60.023438 127.050781 60.296875 128.195312 60.523438 128.773438 C 60.835938 129.5625 60.761719 129.890625 60.246094 130.011719 C 59.949219 130.078125 59.691406 130.058594 59.171875 129.925781 C 58.796875 129.828125 58.300781 129.71875 58.070312 129.683594 C 57.839844 129.648438 57.433594 129.492188 57.171875 129.339844 C 56.90625 129.1875 56.566406 128.996094 56.414062 128.921875 C 56.234375 128.828125 56.023438 128.542969 55.796875 128.089844 L 55.453125 127.398438 L 55.671875 127.140625 C 55.832031 126.949219 55.871094 126.800781 55.828125 126.582031 C 55.78125 126.34375 55.832031 126.210938 56.082031 125.914062 C 56.253906 125.710938 56.394531 125.507812 56.394531 125.460938 C 56.394531 125.269531 56.101562 124.738281 55.824219 124.429688 C 55.492188 124.0625 55.3125 123.546875 55.171875 122.5625 C 55.121094 122.195312 54.96875 121.59375 54.832031 121.226562 C 54.277344 119.722656 52.625 117.003906 52.015625 116.597656 C 51.851562 116.488281 51.648438 116.207031 51.546875 115.949219 C 51.445312 115.699219 51.328125 115.449219 51.289062 115.394531 C 51.246094 115.34375 51.132812 115.070312 51.035156 114.792969 C 50.875 114.324219 50.5625 113.957031 49.878906 113.425781 C 49.730469 113.308594 49.660156 113.089844 49.605469 112.589844 C 49.5625 112.214844 49.492188 111.910156 49.441406 111.910156 C 49.394531 111.910156 49.144531 112.242188 48.886719 112.648438 C 48.628906 113.054688 48.179688 113.710938 47.882812 114.105469 C 47.417969 114.730469 47.320312 114.949219 47.121094 115.777344 C 46.742188 117.390625 46.460938 119.996094 46.515625 121.464844 C 46.574219 123.144531 46.726562 123.527344 47.707031 124.476562 C 48.105469 124.855469 48.429688 125.234375 48.429688 125.316406 C 48.429688 125.449219 49.390625 126.867188 49.714844 127.203125 C 49.945312 127.445312 49.890625 127.824219 49.597656 128.003906 C 49.1875 128.253906 47.691406 128.820312 47.4375 128.820312 C 47.054688 128.820312 46.171875 128.394531 45.414062 127.847656 C 44.707031 127.335938 44.699219 127.324219 44.667969 126.835938 C 44.648438 126.492188 44.703125 126.203125 44.847656 125.894531 C 45.109375 125.339844 45.109375 125.339844 44.800781 125.207031 C 44.660156 125.148438 44.492188 124.988281 44.425781 124.855469 C 44.359375 124.714844 44.121094 124.535156 43.875 124.433594 C 43.636719 124.332031 43.390625 124.167969 43.332031 124.0625 C 43.265625 123.945312 43.238281 123.445312 43.261719 122.785156 C 43.28125 122.191406 43.253906 121.628906 43.203125 121.535156 C 43.097656 121.34375 42.804688 121.316406 42.632812 121.476562 C 42.496094 121.601562 42.429688 121.476562 42.152344 120.574219 C 42.007812 120.109375 41.945312 120.023438 41.769531 120.050781 C 41.535156 120.082031 41.480469 120.003906 41.226562 119.332031 C 41.132812 119.082031 40.949219 118.757812 40.824219 118.617188 C 40.695312 118.476562 40.515625 118.117188 40.425781 117.824219 C 40.25 117.257812 39.921875 116.78125 39.703125 116.78125 C 39.632812 116.78125 39.496094 116.699219 39.398438 116.601562 C 39.253906 116.453125 39.234375 116.316406 39.289062 115.859375 C 39.332031 115.519531 39.3125 115.132812 39.238281 114.878906 C 39.011719 114.097656 39.121094 107.859375 39.390625 106.03125 C 39.480469 105.4375 39.527344 104.316406 39.519531 103.070312 L 39.507812 101.0625 L 39.875 99.941406 C 40.078125 99.324219 40.273438 98.574219 40.308594 98.269531 C 40.347656 97.96875 40.472656 97.179688 40.585938 96.523438 C 40.699219 95.867188 40.78125 95.179688 40.765625 94.996094 C 40.71875 94.289062 40.78125 94.097656 41.523438 92.726562 C 42.347656 91.210938 43.464844 89.535156 44.085938 88.894531 C 44.519531 88.445312 46.089844 87.398438 46.914062 87.011719 C 47.210938 86.867188 47.824219 86.503906 48.277344 86.203125 C 49.136719 85.621094 49.847656 85.261719 50.523438 85.058594 C 50.984375 84.917969 53.554688 83.890625 54.542969 83.449219 C 55.480469 83.03125 56.960938 82.800781 57.765625 82.941406 C 58.710938 83.109375 61.796875 82.9375 62.984375 82.652344 L 63.902344 82.429688 L 63.90625 81.476562 C 63.90625 80.722656 63.945312 80.464844 64.085938 80.269531 C 64.1875 80.132812 64.296875 79.792969 64.332031 79.523438 C 64.402344 78.964844 64.636719 78.613281 64.882812 78.703125 C 64.972656 78.734375 65.152344 78.941406 65.285156 79.164062 C 65.527344 79.574219 66.164062 80.175781 66.363281 80.179688 C 66.734375 80.195312 66.957031 79.460938 66.65625 79.226562 C 66.464844 79.078125 65.59375 78.019531 65.527344 77.851562 C 65.5 77.789062 65.617188 77.570312 65.789062 77.371094 C 66.128906 76.972656 66.195312 76.648438 65.933594 76.648438 C 65.808594 76.648438 65.785156 76.597656 65.839844 76.433594 C 66.011719 75.917969 66.007812 75.75 65.8125 75.050781 C 65.664062 74.503906 65.59375 73.863281 65.550781 72.617188 C 65.496094 71.09375 65.511719 70.886719 65.683594 70.523438 C 65.800781 70.28125 65.855469 70.003906 65.828125 69.828125 C 65.734375 69.28125 66.160156 68.453125 66.878906 67.789062 C 67.234375 67.464844 67.710938 67.078125 67.941406 66.9375 C 68.222656 66.765625 68.4375 66.519531 68.613281 66.171875 C 68.753906 65.894531 69 65.578125 69.160156 65.472656 C 69.320312 65.367188 69.535156 65.089844 69.636719 64.855469 C 69.757812 64.578125 69.90625 64.410156 70.050781 64.375 C 70.382812 64.296875 70.429688 64 70.191406 63.410156 C 70.050781 63.058594 69.980469 62.65625 69.980469 62.199219 C 69.980469 61.613281 70.015625 61.480469 70.222656 61.269531 C 70.355469 61.136719 70.519531 60.820312 70.59375 60.570312 C 70.789062 59.890625 71.203125 59.417969 71.871094 59.113281 C 72.511719 58.820312 73.023438 58.78125 74.015625 58.964844 C 74.722656 59.089844 75.007812 59.261719 75.46875 59.824219 C 75.984375 60.449219 76.148438 61.125 76.078125 62.304688 C 76.03125 63.101562 75.976562 63.339844 75.820312 63.5 C 75.582031 63.746094 75.265625 64.320312 74.980469 65.03125 C 74.792969 65.5 74.71875 65.578125 74.265625 65.769531 C 73.988281 65.886719 73.761719 66.03125 73.761719 66.089844 C 73.761719 66.148438 73.898438 66.324219 74.066406 66.472656 C 74.433594 66.800781 74.4375 66.84375 74.15625 67.429688 L 73.941406 67.886719 L 74.429688 69.039062 C 74.796875 69.90625 75.074219 70.382812 75.550781 70.964844 C 75.898438 71.390625 76.238281 71.835938 76.304688 71.953125 C 76.386719 72.097656 76.417969 72.605469 76.394531 73.523438 L 76.363281 74.882812 L 77.027344 74.882812 C 77.472656 74.882812 77.777344 74.933594 77.949219 75.039062 C 78.089844 75.125 78.371094 75.246094 78.574219 75.304688 C 78.984375 75.425781 79.265625 75.675781 79.4375 76.0625 C 79.535156 76.285156 79.515625 76.34375 79.257812 76.570312 C 79.046875 76.753906 78.96875 76.914062 78.96875 77.160156 C 78.96875 77.785156 80.375 78.796875 83.417969 80.359375 C 84.148438 80.734375 84.886719 81.066406 85.058594 81.101562 C 85.410156 81.164062 85.46875 81.128906 86.796875 79.964844 C 87.609375 79.253906 87.90625 79.085938 89.011719 78.707031 C 89.28125 78.617188 89.710938 78.390625 89.964844 78.210938 C 90.21875 78.03125 90.59375 77.8125 90.800781 77.726562 C 91.007812 77.640625 91.773438 77.300781 92.503906 76.972656 C 93.234375 76.644531 94.175781 76.222656 94.597656 76.039062 C 95.019531 75.855469 95.6875 75.539062 96.082031 75.339844 C 97.59375 74.578125 97.707031 74.546875 98.984375 74.601562 C 99.945312 74.640625 100.171875 74.625 100.320312 74.5 C 100.453125 74.386719 100.757812 74.339844 101.507812 74.320312 C 102.0625 74.308594 102.605469 74.25 102.71875 74.195312 C 102.832031 74.140625 103.355469 74.070312 103.886719 74.039062 C 104.753906 73.988281 104.875 74.003906 105.152344 74.1875 C 105.398438 74.351562 105.625 74.390625 106.394531 74.410156 L 107.335938 74.433594 L 107.628906 73.863281 C 108.109375 72.925781 108.949219 72.375 109.296875 72.765625 C 109.382812 72.863281 109.371094 73 109.257812 73.304688 C 109 73.984375 109.121094 75.15625 109.460938 75.277344 C 109.675781 75.355469 110.34375 75.128906 110.636719 74.882812 C 111.265625 74.347656 112.136719 74.195312 112.589844 74.539062 L 112.832031 74.722656 L 112.5625 74.992188 C 112.234375 75.324219 112.09375 75.570312 111.90625 76.152344 C 111.691406 76.820312 111.722656 77.035156 112.121094 77.503906 C 112.316406 77.734375 112.511719 78.035156 112.546875 78.171875 C 112.585938 78.308594 112.621094 79.136719 112.621094 80.011719 C 112.625 81.546875 112.617188 81.617188 112.398438 81.808594 C 112.269531 81.917969 112.167969 82.113281 112.167969 82.242188 C 112.167969 82.671875 111.949219 83.855469 111.753906 84.484375 C 111.441406 85.488281 111.328125 86.78125 111.457031 87.878906 C 111.699219 89.953125 111.695312 90.316406 111.40625 92.003906 C 110.910156 94.921875 110.929688 94.886719 109.992188 95.207031 C 109.625 95.328125 109.160156 95.589844 108.863281 95.839844 C 108.363281 96.253906 108.347656 96.257812 107.742188 96.21875 C 107.226562 96.183594 107.09375 96.132812 106.878906 95.902344 C 106.742188 95.75 106.414062 95.527344 106.152344 95.40625 C 105.894531 95.28125 105.484375 95.070312 105.246094 94.9375 C 104.925781 94.757812 104.582031 94.671875 103.96875 94.613281 C 103.097656 94.53125 101.804688 94.097656 101.390625 93.75 C 101.027344 93.445312 96.953125 91.609375 96.851562 91.703125 C 96.800781 91.753906 96.421875 92.375 96.011719 93.085938 L 95.265625 94.375 L 95.273438 95.378906 C 95.28125 95.929688 95.359375 96.867188 95.453125 97.460938 C 95.601562 98.421875 95.605469 98.613281 95.472656 99.203125 C 95.273438 100.09375 94.699219 101.382812 94.234375 101.992188 C 94.023438 102.265625 93.695312 102.78125 93.5 103.136719 C 93.261719 103.574219 92.949219 103.953125 92.546875 104.296875 C 92.214844 104.578125 91.941406 104.84375 91.941406 104.890625 C 91.941406 105.023438 93.785156 108.386719 94.164062 108.941406 C 94.359375 109.226562 94.578125 109.617188 94.648438 109.808594 C 94.722656 110 95.257812 110.820312 95.839844 111.632812 C 96.960938 113.199219 96.957031 113.195312 97.757812 114.828125 C 98.308594 115.945312 98.34375 116.164062 98.160156 117.109375 C 98.054688 117.632812 98.074219 117.832031 98.316406 118.933594 C 98.578125 120.109375 99.183594 122.320312 99.609375 123.644531 C 99.757812 124.105469 99.785156 124.339844 99.714844 124.628906 C 99.609375 125.066406 99.753906 125.808594 100.160156 126.910156 C 100.371094 127.480469 100.421875 127.78125 100.410156 128.390625 C 100.394531 128.988281 100.453125 129.34375 100.671875 130.03125 C 101.09375 131.324219 100.945312 131.585938 99.894531 131.398438 C 99.207031 131.277344 98.875 131.101562 97.796875 130.28125 C 96.585938 129.367188 95.988281 128.765625 96.078125 128.550781 C 96.113281 128.464844 96.1875 128.179688 96.242188 127.917969 C 96.332031 127.472656 96.417969 127.347656 97.089844 126.6875 C 97.28125 126.5 97.28125 126.496094 96.960938 126.25 C 96.785156 126.113281 96.640625 125.957031 96.640625 125.90625 C 96.640625 125.851562 96.515625 125.636719 96.359375 125.425781 C 96.089844 125.0625 96.078125 124.984375 96.011719 123.421875 C 95.910156 121.140625 95.777344 119.953125 95.484375 118.742188 C 95.34375 118.164062 95.203125 117.535156 95.167969 117.34375 C 95.078125 116.855469 93.839844 114.945312 93.175781 114.273438 C 92.871094 113.964844 92.113281 113.320312 91.492188 112.84375 C 90.867188 112.367188 89.738281 111.40625 88.980469 110.707031 C 87.835938 109.652344 87.398438 109.320312 86.398438 108.757812 C 85.210938 108.085938 85.191406 108.078125 84.917969 108.234375 C 84.753906 108.324219 84.460938 108.699219 84.207031 109.140625 C 83.773438 109.898438 82.457031 112.707031 82.042969 113.761719 C 81.660156 114.734375 80.886719 117.28125 80.792969 117.878906 C 80.664062 118.695312 80.546875 118.984375 80.085938 119.597656 C 79.496094 120.386719 79.132812 121.101562 78.777344 122.183594 C 78.257812 123.753906 78.140625 124.449219 78.203125 125.523438 C 78.296875 127.148438 78.558594 127.816406 79.480469 128.761719 C 79.875 129.164062 80.203125 129.597656 80.242188 129.761719 C 80.28125 129.921875 80.484375 130.234375 80.691406 130.460938 C 80.902344 130.691406 81.296875 131.1875 81.566406 131.570312 C 81.964844 132.140625 82.03125 132.292969 81.929688 132.40625 C 81.8125 132.542969 81.402344 132.574219 80.960938 132.484375 Z M 44.867188 112.503906 C 44.933594 112.339844 44.953125 111.898438 44.910156 111.316406 L 44.84375 110.386719 L 45.675781 109.550781 C 46.132812 109.089844 46.613281 108.519531 46.742188 108.28125 C 46.871094 108.042969 47.097656 107.742188 47.242188 107.617188 C 47.390625 107.488281 47.507812 107.3125 47.507812 107.222656 C 47.507812 107.058594 47.9375 106.238281 48.460938 105.402344 C 48.824219 104.820312 48.96875 104.09375 48.832031 103.523438 C 48.761719 103.238281 48.394531 102.617188 47.773438 101.742188 C 46.53125 99.988281 46.386719 99.722656 46.386719 99.210938 C 46.386719 98.839844 46.339844 98.75 45.988281 98.472656 C 45.734375 98.265625 45.496094 97.9375 45.3125 97.53125 C 45.019531 96.890625 44.949219 96.84375 44.511719 96.996094 C 44.261719 97.085938 44.257812 97.101562 44.265625 98.167969 C 44.269531 98.765625 44.191406 99.769531 44.089844 100.414062 C 43.929688 101.410156 43.917969 101.730469 44.015625 102.613281 C 44.085938 103.273438 44.09375 103.785156 44.035156 104.027344 C 43.878906 104.652344 43.914062 108.597656 44.082031 109.421875 C 44.394531 110.96875 44.445312 111.324219 44.445312 112.035156 C 44.445312 112.628906 44.476562 112.769531 44.601562 112.769531 C 44.6875 112.769531 44.804688 112.648438 44.867188 112.503906 Z M 104.898438 93.234375 C 104.953125 92.796875 104.832031 92.527344 104.382812 92.070312 C 104.074219 91.753906 103.941406 91.53125 103.898438 91.242188 C 103.851562 90.910156 103.765625 90.792969 103.355469 90.503906 C 103.089844 90.316406 102.699219 90.101562 102.488281 90.03125 C 102.277344 89.964844 101.417969 89.609375 100.578125 89.25 C 99.738281 88.890625 98.972656 88.59375 98.878906 88.59375 C 98.699219 88.59375 97.664062 90.21875 97.664062 90.496094 C 97.664062 90.664062 100.023438 91.945312 101.425781 92.539062 C 102.265625 92.898438 104.558594 93.574219 104.761719 93.523438 C 104.816406 93.511719 104.878906 93.378906 104.898438 93.234375 Z M 102.464844 89.035156 C 102.464844 88.859375 102.40625 88.667969 102.335938 88.613281 C 102.265625 88.558594 101.839844 88.425781 101.390625 88.320312 C 100.941406 88.210938 100.304688 88.035156 99.976562 87.929688 C 99.351562 87.726562 99.164062 87.746094 99.214844 87.996094 C 99.25 88.167969 101.878906 89.347656 102.234375 89.355469 C 102.425781 89.359375 102.464844 89.308594 102.464844 89.035156 Z M 101.542969 87.621094 C 101.542969 87.558594 101.445312 87.410156 101.328125 87.292969 C 101.210938 87.175781 100.96875 86.875 100.792969 86.625 C 100.617188 86.375 100.425781 86.167969 100.371094 86.167969 C 100.3125 86.167969 100.117188 86.378906 99.929688 86.632812 C 99.527344 87.191406 99.566406 87.25 100.523438 87.527344 C 101.296875 87.753906 101.542969 87.777344 101.542969 87.621094 Z M 62.804688 84.742188 C 62.898438 84.546875 63.453125 84.292969 64.503906 83.96875 C 64.667969 83.917969 64.683594 83.847656 64.625 83.503906 C 64.589844 83.28125 64.523438 83.070312 64.484375 83.035156 C 64.445312 83 63.679688 83.078125 62.78125 83.210938 C 61.882812 83.347656 60.652344 83.484375 60.046875 83.515625 C 59.441406 83.550781 58.945312 83.617188 58.941406 83.664062 C 58.941406 83.710938 59.320312 83.886719 59.785156 84.058594 C 60.253906 84.230469 60.980469 84.5 61.402344 84.664062 C 62.339844 85.023438 62.65625 85.042969 62.804688 84.742188 Z M 62.96875 83.050781 C 63.746094 82.945312 64.128906 82.796875 63.984375 82.65625 C 63.875 82.554688 62.015625 82.949219 62.015625 83.070312 C 62.015625 83.167969 62.109375 83.164062 62.96875 83.050781 Z M 83.332031 82.15625 C 83.414062 82.078125 82.980469 81.675781 81.203125 80.183594 C 80.457031 79.558594 79.78125 79.097656 79.027344 78.703125 C 78.425781 78.390625 77.75 77.984375 77.527344 77.808594 C 77.292969 77.625 77.082031 77.519531 77.03125 77.570312 C 76.984375 77.613281 76.996094 78.007812 77.0625 78.445312 L 77.175781 79.238281 L 77.84375 79.414062 C 78.210938 79.511719 78.695312 79.640625 78.917969 79.699219 C 79.222656 79.777344 79.601562 80.054688 80.402344 80.78125 C 80.992188 81.320312 81.589844 81.894531 81.730469 82.054688 C 81.976562 82.339844 82.003906 82.34375 82.617188 82.289062 C 82.964844 82.257812 83.285156 82.199219 83.332031 82.15625 Z M 83.332031 82.15625 "/>
<path style=" stroke:none;fill-rule:nonzero;fill:rgb(95.686275%,98.039216%,100%);fill-opacity:1;" d="M 54.550781 148.375 C 54.109375 148.1875 53.734375 147.882812 53.417969 147.460938 L 52.683594 147.5 L 52.527344 147.433594 L 53.328125 145.671875 L 53.484375 145.738281 L 53.511719 147.273438 C 53.78125 147.707031 54.167969 148.035156 54.675781 148.25 C 55.089844 148.425781 55.480469 148.464844 55.84375 148.371094 C 56.214844 148.273438 56.488281 148.03125 56.660156 147.648438 C 56.789062 147.367188 56.800781 147.113281 56.699219 146.878906 C 56.597656 146.636719 56.375 146.386719 56.027344 146.125 L 54.984375 145.332031 C 54.621094 145.050781 54.394531 144.742188 54.300781 144.402344 C 54.207031 144.054688 54.242188 143.710938 54.398438 143.363281 C 54.542969 143.046875 54.730469 142.796875 54.96875 142.609375 C 55.214844 142.417969 55.492188 142.308594 55.800781 142.28125 C 56.113281 142.25 56.441406 142.308594 56.785156 142.457031 C 57.214844 142.640625 57.566406 142.875 57.84375 143.160156 L 58.457031 143.167969 L 58.613281 143.234375 L 57.976562 144.632812 L 57.824219 144.566406 L 57.765625 143.347656 C 57.488281 143.03125 57.140625 142.785156 56.722656 142.609375 C 56.3125 142.4375 55.945312 142.402344 55.613281 142.507812 C 55.289062 142.605469 55.046875 142.824219 54.898438 143.15625 C 54.785156 143.40625 54.78125 143.632812 54.878906 143.847656 C 54.984375 144.058594 55.183594 144.277344 55.472656 144.5 L 56.59375 145.359375 C 56.957031 145.636719 57.183594 145.9375 57.269531 146.269531 C 57.363281 146.597656 57.296875 147.011719 57.070312 147.511719 C 56.839844 148.019531 56.496094 148.347656 56.042969 148.496094 C 55.589844 148.648438 55.09375 148.605469 54.550781 148.375 Z M 54.550781 148.375 "/>
<path style=" stroke:none;fill-rule:nonzero;fill:rgb(95.686275%,98.039216%,100%);fill-opacity:1;" d="M 57.09375 149.273438 L 57.144531 149.125 L 57.855469 149.230469 L 59.597656 144.046875 L 58.957031 143.734375 L 59.007812 143.578125 L 63.433594 144.972656 L 62.886719 146.605469 L 62.6875 146.542969 L 62.609375 144.910156 L 60.433594 144.222656 L 59.570312 146.789062 L 60.527344 147.089844 L 61.308594 146.195312 L 61.5 146.253906 L 60.742188 148.503906 L 60.550781 148.445312 L 60.460938 147.257812 L 59.515625 146.957031 L 58.636719 149.570312 L 60.945312 150.300781 L 62.074219 148.925781 L 62.265625 148.984375 L 61.679688 150.722656 Z M 57.09375 149.273438 "/>
<path style=" stroke:none;fill-rule:nonzero;fill:rgb(95.686275%,98.039216%,100%);fill-opacity:1;" d="M 62.4375 150.78125 L 63.15625 150.8125 L 64.296875 145.472656 L 63.621094 145.230469 L 63.65625 145.066406 L 66.554688 145.648438 C 67.113281 145.761719 67.578125 145.980469 67.953125 146.3125 C 68.335938 146.640625 68.601562 147.050781 68.75 147.542969 C 68.898438 148.03125 68.910156 148.570312 68.785156 149.15625 C 68.660156 149.742188 68.429688 150.234375 68.089844 150.628906 C 67.753906 151.023438 67.34375 151.296875 66.855469 151.453125 C 66.371094 151.605469 65.855469 151.628906 65.304688 151.515625 L 62.402344 150.933594 Z M 65.339844 151.339844 C 65.710938 151.414062 66.054688 151.398438 66.371094 151.289062 C 66.695312 151.179688 66.972656 150.976562 67.203125 150.683594 C 67.4375 150.382812 67.601562 149.996094 67.703125 149.527344 L 67.945312 148.398438 C 68.042969 147.929688 68.046875 147.515625 67.957031 147.152344 C 67.863281 146.792969 67.691406 146.503906 67.441406 146.277344 C 67.195312 146.054688 66.886719 145.90625 66.515625 145.832031 L 65.148438 145.558594 L 63.972656 151.066406 Z M 65.339844 151.339844 "/>
<path style=" stroke:none;fill-rule:nonzero;fill:rgb(95.686275%,98.039216%,100%);fill-opacity:1;" d="M 68.058594 152.074219 L 68.074219 151.914062 L 68.855469 151.6875 L 71.625 146.226562 L 71.75 146.238281 L 73.289062 152.277344 L 73.984375 152.453125 L 73.96875 152.609375 L 71.707031 152.402344 L 71.722656 152.246094 L 72.363281 152.207031 L 71.878906 150.378906 L 69.832031 150.195312 L 69.054688 151.703125 L 69.71875 152.066406 L 69.707031 152.222656 Z M 69.90625 150.042969 L 71.839844 150.21875 L 71.167969 147.511719 Z M 69.90625 150.042969 "/>
<path style=" stroke:none;fill-rule:nonzero;fill:rgb(95.686275%,98.039216%,100%);fill-opacity:1;" d="M 74.144531 152.605469 L 74.144531 152.449219 L 74.855469 152.136719 L 74.765625 147.0625 L 74.039062 146.78125 L 74.039062 146.617188 L 75.476562 146.59375 L 78.890625 151.058594 L 78.816406 146.992188 L 78.089844 146.714844 L 78.089844 146.546875 L 79.734375 146.519531 L 79.738281 146.683594 L 79.007812 146.988281 L 79.109375 152.523438 L 78.914062 152.527344 L 74.964844 147.34375 L 75.050781 152.136719 L 75.796875 152.421875 L 75.800781 152.578125 Z M 74.144531 152.605469 "/>
<path style=" stroke:none;fill-rule:nonzero;fill:rgb(95.686275%,98.039216%,100%);fill-opacity:1;" d="M 82.367188 152.210938 L 82.34375 152.0625 L 82.871094 151.917969 L 82.101562 146.425781 L 81.554688 146.421875 L 81.53125 146.273438 L 82.835938 146.101562 L 83.636719 151.816406 L 84.183594 151.820312 L 84.203125 151.96875 Z M 82.367188 152.210938 "/>
<path style=" stroke:none;fill-rule:nonzero;fill:rgb(95.686275%,98.039216%,100%);fill-opacity:1;" d="M 86.851562 151.65625 C 86.539062 151.71875 86.25 151.730469 85.976562 151.695312 C 85.710938 151.660156 85.488281 151.585938 85.3125 151.460938 C 85.136719 151.339844 85.03125 151.183594 84.988281 151 C 84.953125 150.832031 84.976562 150.683594 85.058594 150.550781 C 85.144531 150.410156 85.265625 150.324219 85.429688 150.289062 C 85.566406 150.261719 85.6875 150.277344 85.792969 150.332031 C 85.898438 150.386719 85.96875 150.476562 85.996094 150.605469 C 85.929688 150.679688 85.886719 150.75 85.867188 150.8125 C 85.847656 150.878906 85.847656 150.953125 85.867188 151.035156 C 85.90625 151.214844 86.015625 151.351562 86.191406 151.445312 C 86.371094 151.535156 86.578125 151.558594 86.820312 151.507812 C 87.210938 151.429688 87.488281 151.214844 87.652344 150.863281 C 87.824219 150.515625 87.839844 149.992188 87.695312 149.304688 L 87.519531 148.480469 C 87.410156 148.6875 87.257812 148.863281 87.0625 149.003906 C 86.871094 149.140625 86.652344 149.230469 86.410156 149.28125 C 86.039062 149.355469 85.691406 149.347656 85.371094 149.261719 C 85.054688 149.171875 84.78125 149.003906 84.5625 148.761719 C 84.339844 148.515625 84.1875 148.195312 84.101562 147.804688 C 84.015625 147.402344 84.03125 147.039062 84.152344 146.714844 C 84.273438 146.382812 84.472656 146.113281 84.75 145.898438 C 85.027344 145.679688 85.351562 145.53125 85.71875 145.457031 C 86.460938 145.304688 87.046875 145.476562 87.472656 145.964844 C 87.898438 146.457031 88.222656 147.199219 88.4375 148.195312 C 88.648438 149.183594 88.613281 149.972656 88.324219 150.5625 C 88.039062 151.148438 87.550781 151.515625 86.851562 151.65625 Z M 86.425781 149.09375 C 86.667969 149.042969 86.882812 148.933594 87.066406 148.765625 C 87.253906 148.589844 87.382812 148.378906 87.449219 148.128906 L 87.238281 147.109375 C 87.125 146.554688 86.941406 146.152344 86.691406 145.894531 C 86.445312 145.632812 86.132812 145.542969 85.753906 145.617188 C 85.390625 145.691406 85.136719 145.871094 84.996094 146.160156 C 84.855469 146.449219 84.835938 146.8125 84.929688 147.253906 L 85.085938 147.972656 C 85.179688 148.398438 85.335938 148.710938 85.558594 148.910156 C 85.785156 149.105469 86.074219 149.164062 86.425781 149.09375 Z M 86.425781 149.09375 "/>
<path style=" stroke:none;fill-rule:nonzero;fill:rgb(95.686275%,98.039216%,100%);fill-opacity:1;" d="M 90.550781 150.640625 C 90.476562 150.277344 90.441406 149.921875 90.449219 149.574219 C 90.460938 149.230469 90.496094 148.90625 90.550781 148.609375 C 90.609375 148.3125 90.691406 147.9375 90.796875 147.492188 C 90.921875 146.972656 91.015625 146.535156 91.078125 146.175781 C 91.140625 145.816406 91.167969 145.433594 91.160156 145.027344 L 88.679688 145.742188 L 88.738281 146.652344 L 88.546875 146.707031 L 88.058594 145.105469 L 91.3125 144.171875 C 91.402344 144.683594 91.453125 145.171875 91.464844 145.644531 C 91.472656 146.109375 91.464844 146.679688 91.4375 147.355469 C 91.40625 148.003906 91.394531 148.550781 91.402344 148.996094 C 91.414062 149.4375 91.46875 149.886719 91.566406 150.347656 Z M 90.550781 150.640625 "/>
<path style=" stroke:none;fill-rule:nonzero;fill:rgb(95.686275%,98.039216%,100%);fill-opacity:1;" d="M 95.394531 149.242188 C 95.097656 149.351562 94.8125 149.410156 94.539062 149.417969 C 94.269531 149.429688 94.039062 149.386719 93.84375 149.292969 C 93.648438 149.199219 93.519531 149.066406 93.445312 148.890625 C 93.382812 148.730469 93.382812 148.578125 93.4375 148.433594 C 93.5 148.28125 93.605469 148.179688 93.761719 148.121094 C 93.890625 148.070312 94.011719 148.066406 94.128906 148.101562 C 94.242188 148.140625 94.324219 148.21875 94.371094 148.339844 C 94.320312 148.421875 94.292969 148.5 94.28125 148.566406 C 94.273438 148.632812 94.285156 148.707031 94.316406 148.785156 C 94.386719 148.957031 94.515625 149.074219 94.707031 149.136719 C 94.898438 149.199219 95.109375 149.1875 95.339844 149.101562 C 95.710938 148.960938 95.949219 148.707031 96.054688 148.335938 C 96.164062 147.960938 96.089844 147.445312 95.832031 146.789062 L 95.515625 146.003906 C 95.445312 146.226562 95.324219 146.421875 95.15625 146.589844 C 94.988281 146.757812 94.789062 146.882812 94.558594 146.96875 C 94.203125 147.101562 93.859375 147.148438 93.53125 147.113281 C 93.203125 147.078125 92.90625 146.953125 92.644531 146.746094 C 92.386719 146.539062 92.183594 146.25 92.03125 145.878906 C 91.878906 145.496094 91.835938 145.136719 91.898438 144.796875 C 91.964844 144.449219 92.113281 144.148438 92.347656 143.894531 C 92.585938 143.632812 92.882812 143.4375 93.234375 143.304688 C 93.9375 143.039062 94.542969 143.113281 95.046875 143.53125 C 95.550781 143.945312 95.992188 144.628906 96.375 145.578125 C 96.75 146.519531 96.847656 147.300781 96.660156 147.929688 C 96.480469 148.554688 96.058594 148.992188 95.394531 149.242188 Z M 94.542969 146.78125 C 94.773438 146.695312 94.964844 146.554688 95.117188 146.355469 C 95.273438 146.152344 95.367188 145.921875 95.390625 145.667969 L 95.007812 144.695312 C 94.800781 144.167969 94.554688 143.796875 94.265625 143.582031 C 93.976562 143.363281 93.65625 143.324219 93.292969 143.457031 C 92.949219 143.589844 92.730469 143.808594 92.636719 144.117188 C 92.550781 144.421875 92.589844 144.785156 92.757812 145.203125 L 93.03125 145.886719 C 93.195312 146.292969 93.402344 146.574219 93.65625 146.738281 C 93.910156 146.894531 94.207031 146.90625 94.542969 146.78125 Z M 94.542969 146.78125 "/>
</g>
</svg>
